<svg width="64" height="64" viewBox="0 0 64 64" fill="none" xmlns="http://www.w3.org/2000/svg">
<path fill-rule="evenodd" clip-rule="evenodd" d="M36.2905 18.4824H40.208V15.5239H42.208V18.4824H48.124V15.5239H50.124V18.4824H54.0406C56.2497 18.4824 58.0406 20.2733 58.0406 22.4824V26.3988H60.9998V28.3988H58.0406V34.3156H60.9998V36.3156H58.0406V40.2325C58.0406 42.4416 56.2497 44.2325 54.0406 44.2325H50.124V47.1906H48.124V44.2325H42.208V47.1906H40.208V44.2325H36.2905C34.0814 44.2325 32.2905 42.4416 32.2905 40.2325V36.3156H29.333V34.3156H32.2905V28.3988H29.333V26.3988H32.2905V22.4824C32.2905 20.2733 34.0814 18.4824 36.2905 18.4824ZM36.2905 20.4824C35.186 20.4824 34.2905 21.3779 34.2905 22.4824V40.2325C34.2905 41.337 35.186 42.2325 36.2905 42.2325H54.0406C55.1452 42.2325 56.0406 41.337 56.0406 40.2325V22.4824C56.0406 21.3779 55.1452 20.4824 54.0406 20.4824H36.2905ZM51.2983 25.2256H39.0342V37.4897H51.2983V25.2256ZM41.0342 35.4897V27.2256H49.2983V35.4897H41.0342Z" fill="#FF4438"/>
<path fill-rule="evenodd" clip-rule="evenodd" d="M13.0016 15.0823C14.3326 12.0892 17.339 10 20.846 10C25.5782 10 29.4286 13.8109 29.4286 18.526V44.3653L29.3785 46.6604L29.3734 46.7054C28.8914 50.9729 25.2548 54.2803 20.846 54.2803C17.123 54.2803 13.9641 51.9235 12.7752 48.6306C7.37727 48.5865 3 44.2253 3 38.8393C3 36.8535 3.6033 35.0099 4.62549 33.4702C3.59119 31.6571 3 29.5597 3 27.3273C3 21.2971 7.29234 16.2725 13.0016 15.0823ZM20.846 12C17.9941 12 15.5774 13.7973 14.6621 16.3081L14.4612 16.8591L13.8823 16.9528C8.8372 17.7688 5 22.1094 5 27.3273C5 29.4078 5.61039 31.3442 6.6623 32.9722L7.04551 33.5653L6.61482 34.1248C5.60371 35.4385 5 37.0689 5 38.8393C5 43.134 8.5124 46.6309 12.8578 46.6309C12.9906 46.6309 13.1177 46.6218 13.2834 46.6099C13.3306 46.6066 13.3808 46.6029 13.4352 46.5993L14.2664 46.543L14.4718 47.3503C15.1919 50.1795 17.7653 52.2803 20.846 52.2803C24.2197 52.2803 26.9932 49.762 27.381 46.5244L27.4286 44.3434V18.526C27.4286 14.9295 24.4878 12 20.846 12Z" fill="#163341"/>
<path fill-rule="evenodd" clip-rule="evenodd" d="M19.7145 40.7998C19.1113 38.5683 16.8076 37.2461 14.5748 37.8496L14.0529 35.9189C17.3507 35.0275 20.7534 36.9787 21.6453 40.2779C22.0177 41.6519 21.8957 43.0528 21.3817 44.2736L19.5384 43.4975C19.8842 42.6763 19.9674 41.7323 19.7148 40.8005L19.7145 40.7998Z" fill="#163341"/>
<path fill-rule="evenodd" clip-rule="evenodd" d="M17.0385 27.2579C19.27 26.6547 20.5922 24.3509 19.9886 22.1181L21.9193 21.5962C22.8108 24.894 20.8595 28.2968 17.5604 29.1886C16.1863 29.561 14.7855 29.439 13.5647 28.925L14.3408 27.0817C15.162 27.4275 16.106 27.5108 17.0377 27.2581L17.0385 27.2579Z" fill="#163341"/>
<path fill-rule="evenodd" clip-rule="evenodd" d="M19.3265 38.0115C20.5538 37.5646 21.1874 36.2074 20.742 34.9841L22.6213 34.2998C23.4461 36.565 22.272 39.0674 20.0109 39.8908L19.3265 38.0115Z" fill="#163341"/>
<path fill-rule="evenodd" clip-rule="evenodd" d="M15.0519 15.4732C13.9897 17.3069 14.6144 19.6556 16.4468 20.717L15.4442 22.4476C12.6547 20.8317 11.7062 17.2589 13.3213 14.4707L15.0519 15.4732Z" fill="#163341"/>
</svg>
